<svg xmlns="http://www.w3.org/2000/svg" viewBox="0 0 500 500"><g id="freepik--background-complete--inject-36"><polygon points="47.48 303.16 98.05 303 148.61 302.94 249.73 302.83 350.86 302.94 401.42 303 451.99 303.16 401.42 303.32 350.86 303.38 249.73 303.5 148.61 303.38 98.05 303.32 47.48 303.16" style="fill:#ebebeb"></polygon><polygon points="47.48 326.38 98.05 326.22 148.61 326.16 249.73 326.05 350.86 326.16 401.42 326.22 451.99 326.38 401.42 326.55 350.86 326.61 249.73 326.72 148.61 326.6 98.05 326.55 47.48 326.38" style="fill:#ebebeb"></polygon><polygon points="47.48 349.6 98.05 349.44 148.61 349.38 249.73 349.27 350.86 349.38 401.42 349.44 451.99 349.6 401.42 349.77 350.86 349.83 249.73 349.94 148.61 349.83 98.05 349.77 47.48 349.6" style="fill:#ebebeb"></polygon><polygon points="47.48 372.82 98.05 372.66 148.61 372.6 249.73 372.49 350.86 372.6 401.42 372.66 451.99 372.82 401.42 372.99 350.86 373.05 249.73 373.16 148.61 373.05 98.05 372.99 47.48 372.82" style="fill:#ebebeb"></polygon><polygon points="47.48 233.5 98.05 233.34 148.61 233.28 249.73 233.16 350.86 233.28 401.42 233.33 451.99 233.5 401.42 233.66 350.86 233.72 249.73 233.83 148.61 233.72 98.05 233.66 47.48 233.5" style="fill:#ebebeb"></polygon><polygon points="47.48 256.72 98.05 256.56 148.61 256.5 249.73 256.38 350.86 256.5 401.42 256.56 451.99 256.72 401.42 256.88 350.86 256.94 249.73 257.05 148.61 256.94 98.05 256.88 47.48 256.72" style="fill:#ebebeb"></polygon><polygon points="47.48 279.94 98.05 279.78 148.61 279.72 249.73 279.61 350.86 279.72 401.42 279.78 451.99 279.94 401.42 280.1 350.86 280.16 249.73 280.27 148.61 280.16 98.05 280.1 47.48 279.94" style="fill:#ebebeb"></polygon><polygon points="47.48 396.05 98.05 395.88 148.61 395.82 249.73 395.71 350.86 395.82 401.42 395.88 451.99 396.05 401.42 396.21 350.86 396.27 249.73 396.38 148.61 396.27 98.05 396.21 47.48 396.05" style="fill:#ebebeb"></polygon><polygon points="203.56 233.16 203.72 261.28 203.78 289.39 203.89 345.62 203.78 378.69 203.72 400.71 203.56 416.03 203.39 400.71 203.34 378.69 203.22 345.62 203.34 289.39 203.4 261.28 203.56 233.16" style="fill:#ebebeb"></polygon><polygon points="180.34 233.16 180.5 261.28 180.56 289.39 180.67 345.62 180.56 378.69 180.5 400.71 180.34 416.03 180.17 400.71 180.11 378.69 180 345.62 180.12 289.39 180.17 261.28 180.34 233.16" style="fill:#ebebeb"></polygon><polygon points="157.12 233.16 157.28 261.28 157.34 289.39 157.45 345.62 157.34 378.69 157.28 400.71 157.12 416.03 156.95 400.71 156.89 378.69 156.78 345.62 156.89 289.39 156.95 261.28 157.12 233.16" style="fill:#ebebeb"></polygon><polygon points="133.9 233.16 134.06 261.28 134.12 289.39 134.23 345.62 134.12 378.69 134.06 400.71 133.9 416.03 133.73 400.71 133.67 378.69 133.56 345.62 133.67 289.39 133.73 261.28 133.9 233.16" style="fill:#ebebeb"></polygon><polygon points="273.22 233.16 273.38 261.28 273.44 289.39 273.56 345.62 273.44 378.69 273.38 400.71 273.22 416.03 273.06 400.71 273 378.69 272.89 345.62 273 289.39 273.06 261.28 273.22 233.16" style="fill:#ebebeb"></polygon><polygon points="250 233.16 250.16 261.28 250.22 289.39 250.34 345.62 250.22 378.69 250.16 400.71 250 416.03 249.84 400.71 249.78 378.69 249.66 345.62 249.78 289.39 249.84 261.28 250 233.16" style="fill:#ebebeb"></polygon><polygon points="226.78 233.16 226.94 261.28 227 289.39 227.11 345.62 227 378.69 226.94 400.71 226.78 416.03 226.62 400.71 226.56 378.69 226.44 345.62 226.56 289.39 226.62 261.28 226.78 233.16" style="fill:#ebebeb"></polygon><polygon points="296.44 233.16 296.61 261.28 296.66 289.39 296.78 345.62 296.67 378.69 296.61 400.71 296.44 416.03 296.28 400.71 296.22 378.69 296.11 345.62 296.22 289.39 296.28 261.28 296.44 233.16" style="fill:#ebebeb"></polygon><polygon points="273.22 233.16 273.38 261.28 273.44 289.39 273.56 345.62 273.44 378.69 273.38 400.71 273.22 416.03 273.06 400.71 273 378.69 272.89 345.62 273 289.39 273.06 261.28 273.22 233.16" style="fill:#ebebeb"></polygon><polygon points="319.66 233.16 319.83 261.28 319.88 289.39 320 345.62 319.89 378.69 319.83 400.71 319.66 416.03 319.5 400.71 319.44 378.69 319.33 345.62 319.44 289.39 319.5 261.28 319.66 233.16" style="fill:#ebebeb"></polygon><polygon points="342.88 233.16 343.05 261.28 343.11 289.39 343.22 345.62 343.11 378.69 343.05 400.71 342.88 416.03 342.72 400.71 342.66 378.69 342.55 345.62 342.66 289.39 342.72 261.28 342.88 233.16" style="fill:#ebebeb"></polygon><polygon points="366.11 233.16 366.27 261.28 366.33 289.39 366.44 345.62 366.33 378.69 366.27 400.71 366.11 416.03 365.94 400.71 365.88 378.69 365.77 345.62 365.88 289.39 365.94 261.28 366.11 233.16" style="fill:#ebebeb"></polygon><polygon points="389.33 233.16 389.49 261.28 389.55 289.39 389.66 345.62 389.55 378.69 389.49 400.71 389.33 416.03 389.16 400.71 389.1 378.69 388.99 345.62 389.1 289.39 389.16 261.28 389.33 233.16" style="fill:#ebebeb"></polygon><polygon points="412.55 233.16 412.71 261.28 412.77 289.39 412.88 345.62 412.77 378.69 412.71 400.71 412.55 416.03 412.38 400.71 412.32 378.69 412.21 345.62 412.32 289.39 412.38 261.28 412.55 233.16" style="fill:#ebebeb"></polygon><polygon points="435.77 233.16 435.93 261.28 435.99 289.39 436.1 345.62 435.99 378.69 435.93 400.71 435.77 416.03 435.6 400.71 435.54 378.69 435.43 345.62 435.55 289.39 435.6 261.28 435.77 233.16" style="fill:#ebebeb"></polygon><polygon points="110.67 233.16 110.84 261.28 110.9 289.39 111.01 345.62 110.9 378.69 110.84 400.71 110.67 416.03 110.51 400.71 110.45 378.69 110.34 345.62 110.45 289.39 110.51 261.28 110.67 233.16" style="fill:#ebebeb"></polygon><polygon points="87.45 233.16 87.62 261.28 87.68 289.39 87.79 345.62 87.68 378.69 87.62 400.71 87.45 416.03 87.29 400.71 87.23 378.69 87.12 345.62 87.23 289.39 87.29 261.28 87.45 233.16" style="fill:#ebebeb"></polygon><polygon points="64.23 233.16 64.4 261.28 64.45 289.39 64.57 345.62 64.46 378.69 64.4 400.71 64.23 416.03 64.07 400.71 64.01 378.69 63.9 345.62 64.01 289.39 64.07 261.28 64.23 233.16" style="fill:#ebebeb"></polygon><rect x="307.71" y="58.55" width="81.95" height="59.16" style="fill:#ebebeb"></rect><rect x="315.44" y="66.28" width="66.48" height="43.69" style="fill:#fff"></rect><rect x="315.44" y="66.28" width="66.48" height="43.69" style="fill:#fff"></rect><rect x="315.44" y="66.28" width="66.49" height="43.69" style="fill:#fff"></rect><g style="opacity:0.2"><polygon points="353.63 66.28 315.44 104.47 315.44 90.75 339.91 66.28 353.63 66.28" style="fill:#ebebeb"></polygon><polygon points="381.93 82.11 381.93 86.63 358.59 109.97 354.06 109.97 381.93 82.11" style="fill:#ebebeb"></polygon><polygon points="329.35 66.28 315.44 80.19 315.44 78.68 327.84 66.28 329.35 66.28" style="fill:#ebebeb"></polygon><polygon points="381.93 96.32 381.93 97.83 369.79 109.97 368.27 109.97 381.93 96.32" style="fill:#ebebeb"></polygon><polygon points="381.56 66.28 337.86 109.97 336.35 109.97 380.05 66.28 381.56 66.28" style="fill:#ebebeb"></polygon></g><rect x="209.02" y="58.55" width="81.95" height="59.16" style="fill:#ebebeb"></rect><rect x="216.76" y="66.28" width="66.48" height="43.69" style="fill:#fff"></rect><rect x="216.76" y="66.28" width="66.49" height="43.69" style="fill:#fff"></rect><g style="opacity:0.2"><polygon points="283.25 71.88 283.25 85.61 258.89 109.97 245.16 109.97 283.25 71.88" style="fill:#ebebeb"></polygon><polygon points="247.83 66.28 216.76 97.36 216.76 92.83 243.32 66.28 247.83 66.28" style="fill:#ebebeb"></polygon><polygon points="228.78 66.28 216.76 78.3 216.76 76.79 227.27 66.28 228.78 66.28" style="fill:#ebebeb"></polygon><polygon points="283.25 94.43 283.25 95.95 269.22 109.97 267.71 109.97 283.25 94.43" style="fill:#ebebeb"></polygon><polygon points="257.31 66.28 216.76 106.83 216.76 105.31 255.8 66.28 257.31 66.28" style="fill:#ebebeb"></polygon></g><rect x="110.34" y="58.55" width="81.95" height="59.16" style="fill:#ebebeb"></rect><rect x="118.07" y="66.28" width="66.48" height="43.69" style="fill:#fff"></rect><g style="opacity:0.2"><polygon points="166.11 66.28 122.41 109.97 118.08 109.97 118.08 100.58 152.38 66.28 166.11 66.28" style="fill:#ebebeb"></polygon><polygon points="184.56 86.53 184.56 100.26 174.85 109.97 161.12 109.97 184.56 86.53" style="fill:#ebebeb"></polygon><polygon points="126.64 66.28 118.08 74.85 118.08 70.33 122.13 66.28 126.64 66.28" style="fill:#ebebeb"></polygon><polygon points="184.56 71 184.56 72.51 147.1 109.97 145.59 109.97 184.56 71" style="fill:#ebebeb"></polygon><polygon points="147.82 66.28 118.08 96.02 118.08 94.51 146.31 66.28 147.82 66.28" style="fill:#ebebeb"></polygon></g></g><g id="freepik--Shadow--inject-36"><ellipse cx="264.94" cy="434.38" rx="108.36" ry="13.26" style="fill:#ebebeb"></ellipse></g><g id="freepik--Shelf--inject-36"><rect x="47.48" y="224.48" width="404.5" height="9.02" style="fill:#ebebeb"></rect></g><g id="freepik--Products--inject-36"><rect x="154.45" y="186.15" width="0.86" height="37.39" transform="translate(-36.8 33.95) rotate(-11.19)" style="fill:#64FCD9"></rect><rect x="137.62" y="204.79" width="38.98" height="0.86" transform="translate(-78.05 312.42) rotate(-77.07)" style="fill:#64FCD9"></rect><rect x="140.52" y="205.17" width="38.93" height="0.85" transform="translate(-83.46 298.35) rotate(-72.97)" style="fill:#64FCD9"></rect><rect x="157.15" y="186.9" width="0.85" height="37.14" transform="translate(-54.58 57.02) rotate(-17.53)" style="fill:#64FCD9"></rect><rect x="157.97" y="185.96" width="0.86" height="37.62" transform="translate(-4.63 3.67) rotate(-1.31)" style="fill:#64FCD9"></rect><polygon points="164.39 224.51 151.25 224.51 153.86 208.05 161.79 208.05 164.39 224.51" style="fill:#c7c7c7"></polygon><rect x="91.03" y="189.59" width="23.63" height="34.92" style="fill:#dbdbdb"></rect><rect x="98.03" y="182.53" width="9.64" height="7.06" style="fill:#263238"></rect><rect x="94.32" y="198.45" width="16.97" height="16.24" style="fill:#455a64"></rect><rect x="116.4" y="185.04" width="20.26" height="39.47" style="fill:#455a64"></rect><rect x="122.39" y="178.99" width="8.26" height="6.05" style="fill:#64FCD9"></rect><rect x="116.4" y="200.09" width="20.26" height="13.92" style="fill:#c7c7c7"></rect></g><g id="freepik--Towels--inject-36"><path d="M272.33,218.32a5.77,5.77,0,0,1-5.77,5.78H193.83a11,11,0,0,1,0-22h72.73a5.78,5.78,0,0,1,4.08,9.87,5.7,5.7,0,0,1-1.61,1.13A5.76,5.76,0,0,1,272.33,218.32Z" style="fill:#64FCD9"></path><path d="M272.33,218.32a5.77,5.77,0,0,1-5.77,5.78H193.83a11,11,0,0,1,0-22h72.73a5.78,5.78,0,0,1,4.08,9.87,5.7,5.7,0,0,1-1.61,1.13A5.76,5.76,0,0,1,272.33,218.32Z" style="fill:#fff;opacity:0.6000000000000001"></path><path d="M185.89,219a.3.3,0,0,0-.42-.09,4.11,4.11,0,0,0-1.63,1.38.31.31,0,0,0,.12.42.32.32,0,0,0,.42-.12l0,0,0,0a.86.86,0,0,0,.07-.1l.17-.18a3.61,3.61,0,0,1,.35-.33h0l0,0,.1-.08.21-.14c.14-.08.28-.16.43-.23A.31.31,0,0,0,185.89,219Z" style="fill:#64FCD9"></path><path d="M186.78,220.21a.33.33,0,0,0-.42.12l0,.06v0l-.1.11h0l-.06,0-.13.08,0,0h0l0,0-.18.06a3.58,3.58,0,0,1-.35.09.32.32,0,0,0-.21.39.32.32,0,0,0,.38.2,2,2,0,0,0,1.36-.81A.32.32,0,0,0,186.78,220.21Z" style="fill:#64FCD9"></path><path d="M199.43,202.74l0,0,0-.07a1,1,0,0,1,0-.16.94.94,0,0,1,0-.16h0a.28.28,0,0,0,0-.09V202h0a.9.9,0,0,1,0-.16,1.09,1.09,0,0,1,.05-.17.31.31,0,0,0-.23-.37.31.31,0,0,0-.37.22,2.12,2.12,0,0,0,.14,1.58.33.33,0,0,0,.43.1A.34.34,0,0,0,199.43,202.74Z" style="fill:#64FCD9"></path><path d="M225.7,201.48a.33.33,0,0,0-.32-.3.31.31,0,0,0-.3.31c0,.3,0,.6,0,.9,0,.14,0,.28,0,.43a1.49,1.49,0,0,1,0,.21.57.57,0,0,1,0,.13h0v.07a.32.32,0,0,0,.23.37.31.31,0,0,0,.37-.23A9.29,9.29,0,0,0,225.7,201.48Z" style="fill:#64FCD9"></path><path d="M227,200.88a.3.3,0,0,0-.38-.2.31.31,0,0,0-.21.38v.08s0,.06,0,.07l0,.2a2.34,2.34,0,0,1,0,.38,6.77,6.77,0,0,1,0,.78.31.31,0,0,0,.62,0A8.58,8.58,0,0,0,227,200.88Z" style="fill:#64FCD9"></path><path d="M237.71,222.58a.31.31,0,0,0-.37.22,3.67,3.67,0,0,0-.11,1.86.31.31,0,0,0,.38.21.33.33,0,0,0,.21-.39l0-.06s0-.07,0-.1,0-.13,0-.19,0-.28,0-.42v-.15l0-.2c0-.14.07-.28.11-.41A.31.31,0,0,0,237.71,222.58Z" style="fill:#64FCD9"></path><path d="M239.5,223.07a.32.32,0,0,0-.31-.3.3.3,0,0,0-.3.31,13.49,13.49,0,0,1,0,2,.31.31,0,0,0,.32.3.33.33,0,0,0,.3-.32A13.33,13.33,0,0,0,239.5,223.07Z" style="fill:#64FCD9"></path><path d="M218.14,223.11a.32.32,0,0,0-.42.12,3.54,3.54,0,0,0-.4,1.39.3.3,0,0,0,.31.3.31.31,0,0,0,.3-.31v0s0-.05,0-.07,0-.1,0-.15,0-.21.08-.31a.88.88,0,0,1,.05-.15.64.64,0,0,0,0-.07h0v0c0-.09.09-.19.14-.28A.32.32,0,0,0,218.14,223.11Z" style="fill:#64FCD9"></path><path d="M248.43,201.08a.31.31,0,0,0-.3.31c0,.12,0,.25,0,.37v.06s0,.06,0,.09,0,.13,0,.2a1.21,1.21,0,0,1-.05.18l0,.09,0,.06,0,.07a.36.36,0,0,1,0,.09l-.09.18a.31.31,0,0,0,.12.42.32.32,0,0,0,.42-.12,3.38,3.38,0,0,0,.41-1.71A.29.29,0,0,0,248.43,201.08Z" style="fill:#64FCD9"></path><path d="M272.05,214.33a5.13,5.13,0,0,0-2.42.66.31.31,0,0,0-.1.43.32.32,0,0,0,.42.1,4.49,4.49,0,0,1,2.11-.58.3.3,0,0,0,.3-.31A.31.31,0,0,0,272.05,214.33Z" style="fill:#64FCD9"></path><path d="M272.39,215.67l-1.19-.15a.32.32,0,0,0-.23,0,.36.36,0,0,0-.14.18.33.33,0,0,0,.23.38l1.18.15a.31.31,0,0,0,.23,0,.27.27,0,0,0,.14-.19A.31.31,0,0,0,272.39,215.67Z" style="fill:#64FCD9"></path><path d="M269,213.1c-19.57,0-62.69.57-67.92.57s-3.69-1.7-2.25-1.91S269,213.1,269,213.1Z" style="fill:#64FCD9"></path><path d="M272.33,196.14a5.77,5.77,0,0,1-5.77,5.78H193.83a11,11,0,0,1,0-22h72.73a5.78,5.78,0,0,1,4.08,9.87,5.7,5.7,0,0,1-1.61,1.13A5.76,5.76,0,0,1,272.33,196.14Z" style="fill:#64FCD9"></path><path d="M272.33,196.14a5.77,5.77,0,0,1-5.77,5.78H193.83a11,11,0,0,1,0-22h72.73a5.78,5.78,0,0,1,4.08,9.87,5.7,5.7,0,0,1-1.61,1.13A5.76,5.76,0,0,1,272.33,196.14Z" style="fill:#fff;opacity:0.8"></path><path d="M185.89,196.85a.31.31,0,0,0-.42-.1,4.11,4.11,0,0,0-1.63,1.38.31.31,0,0,0,.12.42.32.32,0,0,0,.42-.12l0,0,0,0,.07-.09.17-.19a3.61,3.61,0,0,1,.35-.33h0l0,0,.1-.07.21-.14a3.62,3.62,0,0,1,.43-.24A.3.3,0,0,0,185.89,196.85Z" style="fill:#64FCD9"></path><path d="M186.78,198a.32.32,0,0,0-.42.13l0,.06h0l-.1.11h0l-.06.05-.13.07,0,0h0l0,0-.18.06-.35.1a.31.31,0,0,0-.21.38.32.32,0,0,0,.38.2,2,2,0,0,0,1.36-.81A.32.32,0,0,0,186.78,198Z" style="fill:#64FCD9"></path><path d="M199.43,180.57s-.06-.1,0,0l0-.08a.75.75,0,0,1,0-.16,1.13,1.13,0,0,1,0-.15h0a.28.28,0,0,0,0-.09v-.25h0a.9.9,0,0,1,0-.16,1.09,1.09,0,0,1,.05-.17.31.31,0,0,0-.23-.37.31.31,0,0,0-.37.22,2.12,2.12,0,0,0,.14,1.58.32.32,0,0,0,.43.1A.33.33,0,0,0,199.43,180.57Z" style="fill:#64FCD9"></path><path d="M225.7,179.3a.33.33,0,0,0-.32-.3.31.31,0,0,0-.3.31c0,.3,0,.6,0,.9,0,.14,0,.29,0,.43a1.49,1.49,0,0,1,0,.21.53.53,0,0,1,0,.13h0v.07a.32.32,0,0,0,.23.37.31.31,0,0,0,.37-.22A9.38,9.38,0,0,0,225.7,179.3Z" style="fill:#64FCD9"></path><path d="M227,178.7a.31.31,0,0,0-.59.18V179s0,.06,0,.07l0,.2a2.34,2.34,0,0,1,0,.38,6.77,6.77,0,0,1,0,.78.31.31,0,0,0,.62,0A8.64,8.64,0,0,0,227,178.7Z" style="fill:#64FCD9"></path><path d="M237.71,200.4a.31.31,0,0,0-.37.22,3.67,3.67,0,0,0-.11,1.86.31.31,0,0,0,.38.21.33.33,0,0,0,.21-.39l0-.06s0-.07,0-.1,0-.13,0-.19,0-.28,0-.42v-.15l0-.2c0-.14.07-.28.11-.41A.31.31,0,0,0,237.71,200.4Z" style="fill:#64FCD9"></path><path d="M239.5,200.89a.32.32,0,0,0-.31-.3.3.3,0,0,0-.3.31,13.49,13.49,0,0,1,0,2,.31.31,0,0,0,.32.3.33.33,0,0,0,.3-.32A13.33,13.33,0,0,0,239.5,200.89Z" style="fill:#64FCD9"></path><path d="M218.14,200.93a.32.32,0,0,0-.42.12,3.54,3.54,0,0,0-.4,1.39.3.3,0,0,0,.31.3.31.31,0,0,0,.3-.31v0s0,0,0-.07,0-.1,0-.15,0-.21.08-.31a.58.58,0,0,1,.05-.14s0,0,0-.08h0a2.59,2.59,0,0,1,.14-.29A.32.32,0,0,0,218.14,200.93Z" style="fill:#64FCD9"></path><path d="M248.43,178.9a.31.31,0,0,0-.3.31c0,.12,0,.25,0,.37v.07s0,0,0,.08,0,.13,0,.2a1.21,1.21,0,0,1-.05.18l0,.09,0,.06,0,.07a.36.36,0,0,1,0,.09l-.09.18a.31.31,0,0,0,.12.42.32.32,0,0,0,.42-.12,3.37,3.37,0,0,0,.41-1.7A.29.29,0,0,0,248.43,178.9Z" style="fill:#64FCD9"></path><path d="M272.05,192.15a5.25,5.25,0,0,0-2.42.66.31.31,0,0,0-.1.43.32.32,0,0,0,.42.1,4.49,4.49,0,0,1,2.11-.58.3.3,0,0,0,.3-.31A.31.31,0,0,0,272.05,192.15Z" style="fill:#64FCD9"></path><path d="M272.39,193.49l-1.19-.15a.32.32,0,0,0-.23,0,.36.36,0,0,0-.14.18.32.32,0,0,0,.23.38l1.18.15a.31.31,0,0,0,.23,0,.27.27,0,0,0,.14-.19A.31.31,0,0,0,272.39,193.49Z" style="fill:#64FCD9"></path><path d="M269,190.93c-19.57,0-62.69.56-67.92.56s-3.69-1.7-2.25-1.9S269,190.93,269,190.93Z" style="fill:#64FCD9"></path></g><g id="freepik--Plant--inject-36"><path d="M408.72,169.79c9,8.84,10.54,22.51,8.64,34.49-.05.27-.47.2-.47-.06,0-2.72.08-5.43.07-8.12l-.14-.36a18.23,18.23,0,0,1-5.86-6.3c-1.51-3-2.1-6.31-3.26-9.41-.1-.3.21-.21.42-.06,5.49,4.05,7.24,8.41,8.82,14.24a48.93,48.93,0,0,0-1-9.07c-1.18-5.53-3.53-11-7.5-15.11A.17.17,0,0,1,408.72,169.79Z" style="fill:#263238"></path><path d="M407,170.82c-1.55.05-2.53,2.54-3.74,3.26a1.16,1.16,0,0,1-1.71-.27c-1.2-1.67.45-3.74,2-4.89a17.37,17.37,0,0,1-3.22,1.48,1.13,1.13,0,0,1-1.45-.87c-.52-2.28,2.34-3.3,4.3-3.35-.95-.66-3.68-2.46-2.23-3.34s4.67,1.68,5.72,2.53c1.53,1.24,3.36,3.11,3.43,5C410.2,172.7,408.22,171.3,407,170.82Z" style="fill:#64FCD9"></path><path d="M407,170.82c-1.55.05-2.53,2.54-3.74,3.26a1.16,1.16,0,0,1-1.71-.27c-1.2-1.67.45-3.74,2-4.89a17.37,17.37,0,0,1-3.22,1.48,1.13,1.13,0,0,1-1.45-.87c-.52-2.28,2.34-3.3,4.3-3.35-.95-.66-3.68-2.46-2.23-3.34s4.67,1.68,5.72,2.53c1.53,1.24,3.36,3.11,3.43,5C410.2,172.7,408.22,171.3,407,170.82Z" style="opacity:0.1"></path><path d="M407.47,171.2c-2-.9-5.8.4-6.13-.35-.65-1.53,2.4-2.58,4-2.78-1.51-.41-4.42-1.07-4.33-2.53.11-1.78,4.45-.25,6.65,1.44,2.77,2.12,2.76,4.17,2.3,4.58C409.37,172.13,407.8,171.35,407.47,171.2Z" style="fill:#64FCD9"></path><path d="M429.28,168.92c-9.36,8.49-11.4,22.09-9.95,34.13,0,.27.46.22.47,0,.11-2.72.13-5.43.24-8.12l.15-.35a18.19,18.19,0,0,0,6.1-6.08c1.62-2.9,2.34-6.22,3.61-9.27.12-.3-.2-.22-.41-.08-5.65,3.84-7.56,8.13-9.36,13.89a49,49,0,0,1,1.3-9c1.4-5.47,3.95-10.86,8.08-14.81A.17.17,0,0,0,429.28,168.92Z" style="fill:#263238"></path><path d="M430.93,170c1.55.11,2.43,2.63,3.61,3.4a1.17,1.17,0,0,0,1.73-.2c1.26-1.63-.31-3.76-1.81-5a17.06,17.06,0,0,0,3.16,1.6,1.11,1.11,0,0,0,1.48-.81c.62-2.26-2.21-3.39-4.17-3.51,1-.62,3.78-2.32,2.36-3.26s-4.73,1.51-5.81,2.31c-1.58,1.19-3.48,3-3.62,4.93C427.68,171.76,429.72,170.44,430.93,170Z" style="fill:#64FCD9"></path><path d="M430.93,170c1.55.11,2.43,2.63,3.61,3.4a1.17,1.17,0,0,0,1.73-.2c1.26-1.63-.31-3.76-1.81-5a17.06,17.06,0,0,0,3.16,1.6,1.11,1.11,0,0,0,1.48-.81c.62-2.26-2.21-3.39-4.17-3.51,1-.62,3.78-2.32,2.36-3.26s-4.73,1.51-5.81,2.31c-1.58,1.19-3.48,3-3.62,4.93C427.68,171.76,429.72,170.44,430.93,170Z" style="opacity:0.1"></path><path d="M430.47,170.38c2-.83,5.78.61,6.13-.13.72-1.5-2.29-2.66-3.92-2.93,1.53-.35,4.45-.89,4.42-2.36,0-1.79-4.44-.42-6.7,1.18-2.85,2-2.91,4.07-2.47,4.5C428.54,171.22,430.14,170.51,430.47,170.38Z" style="fill:#64FCD9"></path><path d="M419.71,191.34a92,92,0,0,1-2.91,13.42.33.33,0,0,1-.65-.14c.61-4.13,1.73-8.19,2.35-12.33a62.34,62.34,0,0,0,.72-12.66c-.4-7-2.29-14.38-6.84-19.83-.1-.13.11-.32.22-.2,9.1,10.62,7.65,23.64,7.65,24.8,1.28-4.39,2.61-9.43,7.49-13.91.21-.19.37-.1.34.23-.87,8.15-3.14,12.41-7.87,16.77C420.08,188.78,419.91,190.07,419.71,191.34Z" style="fill:#263238"></path><path d="M412.3,161c-1.64-.73-3.9,1.35-5.52,1.5a1.34,1.34,0,0,1-1.64-1.15c-.4-2.34,2.34-3.65,4.53-4.07-1.38-.09-2.73.28-4.08-.08a1.29,1.29,0,0,1-1.07-1.64c.6-2.63,4.08-2.24,6.14-1.3-.65-1.17-2.58-4.41-.63-4.6s4,4.1,4.66,5.51c1,2.06,1.93,4.91,1,7C414.66,164.57,413.3,162.11,412.3,161Z" style="fill:#64FCD9"></path><path d="M412.3,161c-1.64-.73-3.9,1.35-5.52,1.5a1.34,1.34,0,0,1-1.64-1.15c-.4-2.34,2.34-3.65,4.53-4.07-1.38-.09-2.73.28-4.08-.08a1.29,1.29,0,0,1-1.07-1.64c.6-2.63,4.08-2.24,6.14-1.3-.65-1.17-2.58-4.41-.63-4.6s4,4.1,4.66,5.51c1,2.06,1.93,4.91,1,7C414.66,164.57,413.3,162.11,412.3,161Z" style="opacity:0.1"></path><path d="M412.57,161.64c-1.6-1.94-6.21-2.51-6.17-3.45.09-1.92,3.78-1.47,5.59-.86-1.37-1.19-4.05-3.33-3.23-4.8,1-1.79,4.75,2,6.18,4.84,1.81,3.6.76,5.72.08,5.91C414.08,163.55,412.84,162,412.57,161.64Z" style="fill:#64FCD9"></path><path d="M425.7,193.79l4,30.68H405.28c.5-2.72,5.05-30.72,5.05-30.72Z" style="fill:#64FCD9"></path></g><g id="freepik--Floor--inject-36"><polygon points="451.99 416.92 401.49 417.17 350.99 417.25 250 417.42 149.01 417.25 98.51 417.17 48.01 416.92 98.51 416.68 149.01 416.59 250 416.42 350.99 416.59 401.49 416.68 451.99 416.92" style="fill:#263238"></polygon></g><g id="freepik--Character--inject-36"><path d="M240.11,308.45c-6.29,0-11.56-2-15.68-5.88-9.78-9.26-11-26.95-11-41.33v-.94c0-9.33,0-19.89,6.71-26.38,4.31-4.16,10.69-6,19.54-5.69a1.5,1.5,0,0,1-.06,3h-.06c-8-.31-13.65,1.29-17.34,4.85-5.81,5.6-5.8,15.49-5.79,24.21v.95c0,13.78,1.15,30.68,10.09,39.15,3.87,3.66,9,5.35,15.16,5,21.2-1.15,31.94-6.87,31.94-17,0-.53,0-1.15,0-1.84.13-5.64.37-16.13-6.1-22.75-4-4.06-10-6.11-17.91-6.11a1.5,1.5,0,0,1,0-3c8.76,0,15.51,2.35,20.06,7,7.35,7.52,7.09,18.84,6.95,24.91,0,.67,0,1.27,0,1.78,0,12-11.7,18.74-34.77,20C241.24,308.43,240.67,308.45,240.11,308.45Z" style="fill:#a6a6a6"></path><path d="M271.37,238.34a1.26,1.26,0,0,1-1.26-1.25c0-3.35-.48-6.35-6.34-6.35a1.25,1.25,0,0,1,0-2.5c8.85,0,8.85,6.43,8.85,8.85A1.25,1.25,0,0,1,271.37,238.34Z" style="fill:#a6a6a6"></path><rect x="232.96" y="227.45" width="33.3" height="4.55" style="fill:#ebebeb"></rect><path d="M265.13,234.73l-5.59,5.92-.09.12a1.3,1.3,0,0,0-.42,1,1.08,1.08,0,0,0,.09.29c.72,1.67,6.07,2.45,12.42,1.73s11.37-2.66,11.71-4.44a1.09,1.09,0,0,0,0-.31,1.28,1.28,0,0,0-.64-.92l-.11-.09-6.76-4.53C273.45,232,267,232.71,265.13,234.73Z" style="fill:#ebebeb"></path><path d="M283.26,239.08c.21,1.87-5,4-11.73,4.75s-12.29-.15-12.5-2,5.05-4,11.74-4.75S283.05,237.21,283.26,239.08Z" style="fill:#dbdbdb"></path><rect x="245.25" y="232.81" width="6.17" height="68.04" style="fill:#a6a6a6"></rect><polygon points="254.44 228.93 254.44 232.45 242.22 232.45 242.22 228.93 239.03 228.93 239.03 232.45 239.03 235.75 242.22 235.75 254.44 235.75 257.64 235.75 257.64 232.45 257.64 228.93 254.44 228.93" style="fill:#c7c7c7"></polygon><rect x="237.11" y="259.9" width="22.46" height="3.85" style="fill:#c7c7c7"></rect><circle cx="248.33" cy="261.82" r="4.8" style="fill:#ebebeb"></circle><path d="M239,259.72l-5.26-2.45-.1,0a2.38,2.38,0,0,0-1-.21l-.3,0c-1.74.21-3.11,2.27-3.11,4.79s1.37,4.57,3.11,4.78l.3,0a2.38,2.38,0,0,0,1-.21l.1,0,5.26-2.45A2.32,2.32,0,0,0,239,259.72Z" style="fill:#ebebeb"></path><path d="M257.67,263.93l5.26,2.45.1,0a2.38,2.38,0,0,0,1,.21l.3,0c1.74-.21,3.11-2.27,3.11-4.79s-1.37-4.57-3.11-4.78l-.3,0a2.38,2.38,0,0,0-1,.21l-.1,0-5.26,2.45A2.32,2.32,0,0,0,257.67,263.93Z" style="fill:#ebebeb"></path><path d="M158.86,385.24l-19-4.63a1.3,1.3,0,0,0-1.66.91l-3.9,31.33c-.47,3.76,5.73,5.27,7.83,1.91l17.56-28A1,1,0,0,0,158.86,385.24Z" style="fill:#ebebeb"></path><path d="M365.74,412.85l-3.9-31.33a1.31,1.31,0,0,0-1.67-.91l-19,4.63a1,1,0,0,0-.79,1.51l17.56,28C360,418.12,366.21,416.61,365.74,412.85Z" style="fill:#ebebeb"></path><path d="M256.81,304.81h-175s18.49,40.94,27.08,59.12,16.84,30.39,53.5,30.39h175.3c36.66,0,44.91-12.22,53.5-30.39s27.08-59.12,27.08-59.12Z" style="fill:#dbdbdb"></path><path d="M423.42,296.23H76.58a3.48,3.48,0,0,0-3.48,3.48V305a3.48,3.48,0,0,0,3.48,3.48H423.42A3.48,3.48,0,0,0,426.9,305v-5.26A3.48,3.48,0,0,0,423.42,296.23Z" style="fill:#ebebeb"></path><path d="M323.38,239.74a45.43,45.43,0,0,1-8.85,5.24c4.91-7.9,4.59-26,4-23.42-3.05,12.26-11.1,25.59-14.06,26.19h-.05a34,34,0,0,1-21-4.93.08.08,0,0,1,0,0c6.32-8.91,6.48-27.3,6-26.19-4.76,11.89-14.18,18.69-15.79,18.64h0c-5.83-5.83-8.85-11.58-8-12.13,6.26-4.06,15.3-25.21,20.29-36.54h0c4.94-11.17,7.54-21.84,14.35-31.75,6.24-9.08,18.33-10.56,25.05-5.7C343,161.85,327.27,236.83,323.38,239.74Z" style="fill:#263238"></path><path d="M324.11,148.34a12.14,12.14,0,0,1,3.9,3.34,28.8,28.8,0,0,1,2.82,4.34,49.42,49.42,0,0,1,3.61,9.7c1.81,6.68,1.23,14.14,1.22,21-.19,12.69-6.74,40.55-6.74,40.55l-1.39,5L326,237.18l1.23-5,1.13-5s5.77-25.51,6.16-40.43c.12-6.83.67-14.17-.91-20.81a49.14,49.14,0,0,0-3.26-9.67,27.64,27.64,0,0,0-2.57-4.4,17,17,0,0,0-1.66-1.94A8.3,8.3,0,0,0,324.11,148.34Z" style="fill:#263238"></path><path d="M264.94,221.23c1.94-2.26,3.73-4.64,5.43-7.07s3.34-4.91,4.84-7.46,6.47-15.6,7.73-18.28,2.43-5.42,3.65-8.13c2.5-5.4,5-10.81,7.81-16.07,1.43-2.62,2.9-5.23,4.54-7.72a39.06,39.06,0,0,1,2.68-3.6A10.86,10.86,0,0,1,305,150a11.61,11.61,0,0,0-3.15,3.1,40.21,40.21,0,0,0-2.44,3.71c-1.53,2.53-2.9,5.17-4.22,7.82-2.64,5.32-5.14,10.71-7.55,16.15-1.26,2.7-2.45,5.41-3.76,8.1s-6.3,15.78-7.92,18.29A85.78,85.78,0,0,1,264.94,221.23Z" style="fill:#263238"></path><path d="M266.64,430.86c2.44.83,74.09.85,76.75-.83.32-.19.29-8.91.51-15.54.32-10.14-13.26-55.29-13.26-55.29l-44.46,2.17,12.4,45.5s-10.24,4.54-18.69,8.51l0,0c-5.2,2.44-9.73,4.66-10.77,5.48C266.39,423,264.21,430,266.64,430.86Z" style="fill:#d3766a"></path><path d="M372.8,288.59c-8.77,8.73-46.37,26.72-49.23,33-2.52,5.57,14.89,65.46,14.89,65.46l-43,8.23s-25.83-70.07-19.26-91.71c6.1-20.08,74.86-59.36,74.86-59.36h27.6S390.07,271.42,372.8,288.59Z" style="fill:#d3766a"></path><path d="M285.42,290.6c15.83,5.68,37.57,14.94,53.05,19.87,12.44-7.54,28.89-16.48,34.32-21.88,17.29-17.18,5.85-44.35,5.85-44.35H351S305.74,270.11,285.42,290.6Z" style="fill:#263238"></path><path d="M180.43,418.35c2.52.49,73.53-9.11,75.93-11.13.29-.23-.43-6.66-1.58-15.47l12.59-53.64-46.77,5.74-14.71,46.08a112.56,112.56,0,0,1-14.42,11.3l0,0c-4.82,3.12-9,5.93-9.93,6.88C179.12,410.63,177.9,417.86,180.43,418.35Z" style="fill:#d3766a"></path><path d="M210.81,374.52l46.13,8.07L276,324.27c-.57-19.9,2.35-27.12,13.55-30.58,19.06-5.91,65.64,15.9,86.73,1.26,17.13-11.88,3.47-50.72,3.47-50.72H330.24s-6,7.29-7.08,11.56c0,0-61.33-4.73-75.05,12.68C229.72,291.79,210.81,374.52,210.81,374.52Z" style="fill:#d3766a"></path><path d="M311.94,294c-2.46-.29-4.92-.52-7.38-.64s-4.93-.19-7.38-.08a41.14,41.14,0,0,0-7.28.87,17.58,17.58,0,0,0-3.42,1.13,20.75,20.75,0,0,0-3.14,1.8,12.86,12.86,0,0,0-4.53,5.42,27.83,27.83,0,0,0-1.91,7,66.5,66.5,0,0,0-.67,7.34c-.15,2.47-.17,4.94-.21,7.41a81.09,81.09,0,0,1,.12-14.86,25.47,25.47,0,0,1,1.84-7.28,14.56,14.56,0,0,1,2-3.27,13.85,13.85,0,0,1,2.81-2.6,22,22,0,0,1,3.32-1.84,18.28,18.28,0,0,1,3.61-1.16,36.17,36.17,0,0,1,7.46-.75A73.23,73.23,0,0,1,311.94,294Z" style="fill:#263238"></path><path d="M379.77,244.23s13.47,35.18,0,48.13-33.38,10-66.31,2.78C301.69,258.73,281,256.38,281,256.38s30.18-3.64,41.93-1.77c0,0,3.05-6.44,7.34-10.38Z" style="fill:#64FCD9"></path><path d="M303.81,254.39a60.83,60.83,0,0,1,9.25-.73,72,72,0,0,1,9.28.51,57.76,57.76,0,0,1,9.12,1.83,42.63,42.63,0,0,1,8.6,3.5c-1.47-.49-2.87-1.14-4.36-1.52s-2.94-.87-4.43-1.24a86.48,86.48,0,0,0-9-1.58c-3-.38-6.1-.59-9.17-.73-1.54-.07-3.08-.1-4.62-.1S305.36,254.35,303.81,254.39Z" style="fill:#263238"></path><path d="M330.24,244.23s30.84.11,49.53,0c0,0-18.58-44.42-33-56.84-6.56-5.64-12.2-4.06-16.64.51-1.1,1.14-12.63,21.44-12.66,28.27,0,7.41,6.24,12.46,6.24,12.46Z" style="fill:#d3766a"></path><path d="M362.14,207.33s-15.53-1.12-24.55-1.34c-1.69,0-8.32,0-8.32,0-.46-.63-4.82-1.05-5.06.13,0,0-3.13.22-3.79.16-1.33-.11-4.74,7.83-3.15,13.11s6.44,9.24,6.44,9.24l6.53,15.59h49.53C372.54,223.43,363.33,208.67,362.14,207.33Z" style="fill:#64FCD9"></path><path d="M324.21,206.13a14.1,14.1,0,0,0-.83,4.9,25.59,25.59,0,0,0,.46,4.94,36.4,36.4,0,0,0,3.22,9.36,22.1,22.1,0,0,0,1.23,2.12c.11.18.23.34.35.5s.28.34.3.38a.3.3,0,0,0-.27-.05.51.51,0,0,1,.35.1c.1.06.18.25.17.22l0,.07a1.89,1.89,0,0,1,.06.21l.06.32.1.63c.27,1.65.55,3.28.91,4.9a26.09,26.09,0,0,0,3.58,9.13l.23.35-.34.22A27.39,27.39,0,0,0,328.5,249a19.93,19.93,0,0,0-2.11,2.8A15,15,0,0,0,325,255a13,13,0,0,1,1.2-3.35,19.15,19.15,0,0,1,2-3,27.6,27.6,0,0,1,2.46-2.61,26.77,26.77,0,0,1,2.8-2.28l-.11.56a18.34,18.34,0,0,1-2.4-4.52A38.23,38.23,0,0,1,329.4,235a50.48,50.48,0,0,1-.93-5l-.09-.62-.05-.29,0-.1h0a.42.42,0,0,0,.15.18.45.45,0,0,0,.32.08.72.72,0,0,1-.41-.14,3.73,3.73,0,0,1-.5-.58c-.12-.18-.25-.36-.36-.54-.47-.73-.87-1.47-1.26-2.23a32.1,32.1,0,0,1-3-9.67A21.43,21.43,0,0,1,323,211,13.17,13.17,0,0,1,324.21,206.13Z" style="opacity:0.1"></path><path d="M328.65,206.13a14,14,0,0,0-.83,4.91,25.1,25.1,0,0,0,.47,5,33,33,0,0,0,1.3,4.8,34.13,34.13,0,0,0,1.93,4.58,22.18,22.18,0,0,0,1.24,2.12l.35.5.18.22.09.1,0,0h0a.37.37,0,0,0-.15-.06h-.09c-.08,0,0,0,.18,0a.52.52,0,0,1,.26.22l0,.07a.63.63,0,0,1,0,.14V230c0,1.67,0,3.33.15,5,.28,3.27.92,6.65,2.75,9.33l.23.34-.34.23a26.7,26.7,0,0,0-5.3,4.55,15.62,15.62,0,0,0-3.56,6,12,12,0,0,1,1.2-3.36,19.15,19.15,0,0,1,2-3,27.64,27.64,0,0,1,2.47-2.61,26.89,26.89,0,0,1,2.79-2.28l-.1.57a13.89,13.89,0,0,1-2.18-4.68,29.1,29.1,0,0,1-.89-5,43.12,43.12,0,0,1-.17-5.08l0-.62v-.48l0,.06,0,.05a.47.47,0,0,0,.24.21c.23.05.25,0,.17,0l-.11,0a.55.55,0,0,1-.18-.07l0,0-.08-.06-.08-.08-.12-.14-.21-.27L332,228a22.33,22.33,0,0,1-1.26-2.23,31.91,31.91,0,0,1-3.05-9.69,22.14,22.14,0,0,1-.22-5.08A13.08,13.08,0,0,1,328.65,206.13Z" style="opacity:0.1"></path><path d="M328.85,226.75a45.9,45.9,0,0,1,6.5.86c1.06.24,2.1.52,3.15.83q.78.23,1.56.42a6.84,6.84,0,0,0,1.68.26,0,0,0,0,1,0,.08,12.34,12.34,0,0,1-1.61,0,11.32,11.32,0,0,1-1.53-.24c-1.08-.23-2.15-.51-3.23-.75-2.17-.49-4.34-1-6.54-1.3C328.73,226.92,328.75,226.74,328.85,226.75Z" style="fill:#263238"></path><path d="M325,228.6a30.66,30.66,0,0,1,4.28-.38,19.27,19.27,0,0,1,2.14.1l1,.11c.38,0,.75.16,1.12.21,0,0,.05.08,0,.07-.36,0-.72,0-1.07,0h-1.07c-.72,0-1.43,0-2.14,0-1.43,0-2.86,0-4.29,0C324.93,228.75,324.93,228.61,325,228.6Z" style="fill:#263238"></path><path d="M338.87,184.74c.34,1.09-.58,10-5.08,12.37-1.47.77-6-7.06-6-7.06l-.47-.5-6.54-7,5.91-11.66.9-1.61s1.66,2,3.71,4.6l.29.36.34.41c.31.38.63.77.93,1.16s.47.59.7.91l.72.95A62,62,0,0,1,338.87,184.74Z" style="fill:#d3766a"></path><path d="M331.28,173.87a19.23,19.23,0,0,1-4,15.68l-6.54-7,5.91-11.66.9-1.61S329.23,171.31,331.28,173.87Z" style="fill:#263238"></path><path d="M301.81,172.37c4.65,16.18,14.86,15.23,18.35,14.23,3.17-.92,13.84-4.42,10.89-21s-11.93-19.54-19.29-17.83S297.17,156.18,301.81,172.37Z" style="fill:#d3766a"></path><path d="M302.83,168.63a11.44,11.44,0,0,0,1-.57,1.93,1.93,0,0,0,.92-.77.6.6,0,0,0-.22-.7,1.48,1.48,0,0,0-1.5.1,2.18,2.18,0,0,0-1.08,1.14A.64.64,0,0,0,302.83,168.63Z" style="fill:#263238"></path><path d="M314.3,166.32a11.11,11.11,0,0,1-1.16.1,1.83,1.83,0,0,1-1.2-.11.61.61,0,0,1-.22-.7,1.48,1.48,0,0,1,1.3-.76,2.15,2.15,0,0,1,1.54.33A.64.64,0,0,1,314.3,166.32Z" style="fill:#263238"></path><path d="M313,170.2s.1,0,.11.07c.28,1.11.79,2.34,1.89,2.42,0,0,.05.06,0,.06C313.73,172.93,313.08,171.3,313,170.2Z" style="fill:#263238"></path><path d="M313.64,168.76c1.74-.64,2.89,2.88,1.29,3.47S312.19,169.3,313.64,168.76Z" style="fill:#263238"></path><path d="M314.4,168.72a2.7,2.7,0,0,0,1.17.27c.44-.1.64-.57.81-1,0-.05.05,0,.07,0a1.36,1.36,0,0,1-.49,1.79,1.39,1.39,0,0,1-1.69-.76C314.2,168.91,314.25,168.68,314.4,168.72Z" style="fill:#263238"></path><path d="M306.86,172s-.07.08-.05.13c.4,1.07.68,2.37-.19,3.06,0,0,0,.08,0,.06C307.8,174.63,307.41,172.91,306.86,172Z" style="fill:#263238"></path><path d="M305.51,171.15c-1.8.45-.75,4,.91,3.58S307,170.76,305.51,171.15Z" style="fill:#263238"></path><path d="M304.84,171.6c-.23.27-.41.69-.74.81s-.78-.16-1.13-.45c0,0-.06,0-.05,0,.18.68.62,1.33,1.31,1.26s.89-.76.85-1.49C305.08,171.65,304.93,171.49,304.84,171.6Z" style="fill:#263238"></path><path d="M316.05,179.1c-.16.34-.29.79-.67,1a2.94,2.94,0,0,1-1.25.16,0,0,0,0,0,0,.08,1.56,1.56,0,0,0,1.59.06,1.22,1.22,0,0,0,.48-1.26C316.16,179,316.07,179.05,316.05,179.1Z" style="fill:#263238"></path><path d="M310.23,176.58s.29,1.71.53,2.48c0,.07.22.05.49,0h0a3.83,3.83,0,0,0,3.12-2.49.08.08,0,0,0-.14-.07,5.77,5.77,0,0,1-3.05,2c-.12-.19-.39-2.93-.52-2.9a6.56,6.56,0,0,0-1.62.95c-.71-3.54-.84-7.15-1.59-10.66,0-.12-.22-.11-.22,0a57.77,57.77,0,0,0,1.23,11.55C308.56,177.89,310,176.81,310.23,176.58Z" style="fill:#263238"></path><path d="M311.41,178.84a4.51,4.51,0,0,0,2.11.84,2,2,0,0,0,1.2-.26c.79-.47.59-1.26.24-1.89a5,5,0,0,0-.68-.91A5.83,5.83,0,0,1,311.41,178.84Z" style="fill:#263238"></path><path d="M313.52,179.68a2,2,0,0,0,1.2-.26c.79-.47.59-1.26.24-1.89A2.09,2.09,0,0,0,313.52,179.68Z" style="fill:#ff9cbd"></path><path d="M331.37,168.73a7,7,0,0,1-5.38-4.37,18.32,18.32,0,0,1-8.87-3.64c.21.3,1.72,2.5,2.52,3.59-10.93,1.13-16.48-5.85-16.48-5.85a18.62,18.62,0,0,0-2.58,7.9s-1.95-6.33.06-11.55a10.68,10.68,0,0,1,8.21-7,15.26,15.26,0,0,1,15.6.17C333.35,153.3,331.37,168.73,331.37,168.73Z" style="fill:#263238"></path><path d="M311.26,164.93a20.15,20.15,0,0,0,5.89.38,0,0,0,0,0,0,0,16.89,16.89,0,0,1-9-2.35,15.77,15.77,0,0,1-3.16-2.46,11.22,11.22,0,0,1-2.55-3.54.08.08,0,1,0-.15.06,13.08,13.08,0,0,0,2,3.84,12,12,0,0,0,3.32,2.75,14,14,0,0,0,3.59,1.35Z" style="fill:#263238"></path><path d="M332.79,171.56a3.55,3.55,0,0,1-.65.46,2.44,2.44,0,0,1-.74.31,2.38,2.38,0,0,1-1,0,2.82,2.82,0,0,1-.76-.23,3.19,3.19,0,0,1-.94-.65l-.74-4.54s1.56-6.22,4.25-5.85S335,169.58,332.79,171.56Z" style="fill:#d3766a"></path><path d="M332.18,163.43s.07,0,0,.07c-1.55,1.44-1.87,3.51-1.87,5.53a1.58,1.58,0,0,1,2-1.24c.06,0,0,.11,0,.12a1.74,1.74,0,0,0-1.58,1.26,8.83,8.83,0,0,0-.3,1.78c0,.2-.35.23-.36,0v-.05C329.19,168.59,329.76,164.63,332.18,163.43Z" style="fill:#263238"></path><path d="M336.84,191.19c-.23,6.08,9.86,37.4,9.64,39.6,0,0,15.09,22.19,22.31,9.63,5.14-8.95-8.51-34.58-20.24-48.91C340.71,181.93,337.12,183.79,336.84,191.19Z" style="fill:#d3766a"></path><path d="M339.87,206a35.57,35.57,0,0,0-.88-4.88,34.57,34.57,0,0,0-1.46-4.7,35.7,35.7,0,0,0,.87,4.89A34.92,34.92,0,0,0,339.87,206Z" style="fill:#263238"></path><path d="M356,201.75a36.76,36.76,0,0,0-2.24-4.43,35,35,0,0,0-2.75-4.07,35.34,35.34,0,0,0,2.24,4.43A35,35,0,0,0,356,201.75Z" style="fill:#263238"></path><path d="M336.89,198a2.42,2.42,0,0,0,.13.66,2.89,2.89,0,0,0,.26.63,2.65,2.65,0,0,0,.41.54,1.2,1.2,0,0,0,.59.35,2.15,2.15,0,0,1-.43-.48c-.12-.18-.24-.36-.34-.54C337.3,198.73,337.12,198.34,336.89,198Z" style="fill:#263238"></path><polygon points="278.39 202.32 289.13 196.34 288.26 194.92 278.15 201.92 278.39 202.32" style="fill:#64FCD9"></polygon><polygon points="279.26 203.73 290 197.75 289.13 196.34 279.02 203.33 279.26 203.73" style="fill:#64FCD9"></polygon><polygon points="280.13 205.15 290.87 199.16 290 197.75 279.89 204.75 280.13 205.15" style="fill:#64FCD9"></polygon><polygon points="281 206.56 291.74 200.58 290.87 199.16 280.76 206.16 281 206.56" style="fill:#64FCD9"></polygon><polygon points="281.87 207.97 292.61 201.99 291.74 200.58 281.63 207.57 281.87 207.97" style="fill:#64FCD9"></polygon><polygon points="282.74 209.39 293.48 203.41 292.61 201.99 282.5 208.99 282.74 209.39" style="fill:#64FCD9"></polygon><polygon points="283.61 210.8 294.35 204.82 293.48 203.41 283.37 210.4 283.61 210.8" style="fill:#64FCD9"></polygon><polygon points="295.23 206.23 289.37 209.49 286.55 211.06 286.36 210.75 286.19 210.46 288.86 208.61 294.35 204.82 295.23 206.23" style="fill:#64FCD9"></polygon><polygon points="296.1 207.65 290.2 210.93 287.43 212.47 287.24 212.16 287.06 211.88 289.69 210.05 295.23 206.23 296.1 207.65" style="fill:#64FCD9"></polygon><polygon points="296.96 209.06 295.66 209.78 292.32 211.64 289.58 213.17 289.13 212.46 291.75 210.65 294.87 208.5 296.1 207.65 296.96 209.06" style="fill:#64FCD9"></polygon><polygon points="297.83 210.47 296.52 211.19 293.16 213.08 290.45 214.59 290.01 213.88 292.58 212.09 295.73 209.91 296.96 209.06 297.83 210.47" style="fill:#64FCD9"></polygon><polygon points="298.7 211.89 297.39 212.61 293.99 214.51 291.32 216 290.88 215.28 293.41 213.53 296.6 211.32 297.83 210.47 298.7 211.89" style="fill:#64FCD9"></polygon><polygon points="299.58 213.3 298.27 214.02 294.82 215.95 292.19 217.41 291.75 216.69 294.25 214.97 297.47 212.74 298.7 211.89 299.58 213.3" style="fill:#64FCD9"></polygon><polygon points="300.45 214.72 299.14 215.44 295.65 217.38 293.05 218.82 292.62 218.1 295.08 216.41 298.35 214.14 299.58 213.3 300.45 214.72" style="fill:#64FCD9"></polygon><polygon points="301.31 216.13 300.01 216.85 296.48 218.81 293.93 220.23 293.49 219.53 295.93 217.84 299.22 215.56 300.45 214.72 301.31 216.13" style="fill:#64FCD9"></polygon><polygon points="302.18 217.54 300.88 218.27 297.32 220.25 294.8 221.65 294.35 220.94 296.76 219.27 300.08 216.97 301.31 216.13 302.18 217.54" style="fill:#64FCD9"></polygon><polygon points="303.05 218.96 301.75 219.68 298.15 221.68 295.67 223.06 295.23 222.35 297.59 220.71 300.95 218.39 302.18 217.54 303.05 218.96" style="fill:#64FCD9"></polygon><polygon points="303.93 220.37 302.63 221.1 298.98 223.12 296.54 224.48 296.1 223.76 298.43 222.15 301.82 219.8 303.05 218.96 303.93 220.37" style="fill:#64FCD9"></polygon><polygon points="317.63 245.47 319.42 244.37 290.09 193.8 287 195.7 317.63 245.47" style="fill:#64FCD9"></polygon><path d="M329.59,223.05c-3.38.61-16.29,22-11.44,23.37,22.82,6.56,42.71,1.34,46.87-.84,5.44-2.86,5.8-10.54,3.45-13.81C365.05,227,332.93,222.46,329.59,223.05Z" style="fill:#d3766a"></path><path d="M292.05,232.46c.9,2.85,7.74,0,7.74,0a5.51,5.51,0,0,0-1.21,3.55c.15,2.27,3.77,3,3.77,3a6.82,6.82,0,0,0-.67,3.95c.36,2.15,3.9,3.44,3.9,3.44a6.26,6.26,0,0,0,1.6,3.85c4.43,4.57,20.15-.46,24.33-2.84l-1.31-24.36s-15.89-4.24-22.35-2.44C304.27,221.66,290.66,228.1,292.05,232.46Z" style="fill:#d3766a"></path><path d="M299.82,232.37a50.11,50.11,0,0,1,11.06-5.14.07.07,0,1,1,0,.13c-3.68,1.59-7.29,3.71-11,5.18C299.81,232.59,299.73,232.43,299.82,232.37Z" style="fill:#263238"></path><path d="M302.37,238.91a10.7,10.7,0,0,1,2.59-1c.94-.29,1.88-.57,2.83-.83q2.83-.78,5.73-1.41a.07.07,0,0,1,0,.13c-1.89.52-3.77,1.07-5.64,1.67l-2.79.92a12,12,0,0,1-2.67.77A.14.14,0,0,1,302.37,238.91Z" style="fill:#263238"></path><path d="M305.66,246.42a7.24,7.24,0,0,1,2.38-.78l2.6-.67c1.74-.46,3.47-.92,5.19-1.43a.07.07,0,0,1,.05.13c-1.75.53-3.48,1.09-5.23,1.61l-2.57.75a6.92,6.92,0,0,1-2.4.47S305.63,246.44,305.66,246.42Z" style="fill:#263238"></path></g></svg>